<svg id="Capa_1" enable-background="new 0 0 512 512" height="512" viewBox="0 0 512 512" width="512" xmlns="http://www.w3.org/2000/svg"><g><g><path d="m358.034 504h-318.769c-7.793 0-12.615-8.491-8.624-15.184l18.056-30.277h299.905l18.056 30.277c3.991 6.693-.831 15.184-8.624 15.184z" fill="#37617c"/><path d="m364.978 486h-332.657l-1.68 2.816c-3.991 6.693.832 15.184 8.624 15.184h318.769c7.793 0 12.615-8.491 8.624-15.184z" fill="#30546a"/><path d="m481.715 271.326-22.551-69.388c-22.348-68.764-79.102-120.783-149.548-137.071l-49.523-11.45c34.415 7.487 60.196 36.24 63.701 71.286 39.321 9.649 71.317 38.133 85.451 76.073l31.592 84.8c3.157 8.473 11.246 14.092 20.288 14.092 14.709 0 25.136-14.353 20.59-28.342z" fill="#d4e6fd"/><path d="m479.125 281.668c-9.042 0-17.131-5.619-20.287-14.092l-31.592-84.8c-14.134-37.94-58.487-71.833-109.152-80.856l-.01-.001c2.948 7.152 4.914 14.802 5.712 22.784 39.321 9.649 71.317 38.133 85.451 76.073l31.592 84.8c3.156 8.473 11.246 14.092 20.287 14.092 11.127 0 19.798-8.215 21.396-18.271-1.104.171-2.235.271-3.397.271z" fill="#cbdff9"/><path d="m348.602 458.54s33.546-84.361 0-206.604c-14.873-54.197-21.755-96.704-24.808-127.233-3.505-35.046-29.285-63.798-63.701-71.286l-207.614-45.169c-8.669-1.886-15.52 7.345-11.18 15.082 12.937 23.062 31.546 61.27 30.976 89.38-2.751 135.592-71.545 193.79-23.578 345.83z" fill="#eef3fb"/><path d="m43.453 440.54c1.571 5.859 3.303 11.845 5.244 18h299.905s2.512-6.326 5.472-18z" fill="#e2ecf9"/><path d="m237.215 364.737c-14.052 0-25.444-11.391-25.444-25.443v-167.643c0-14.052 11.391-25.443 25.443-25.443 14.052 0 25.443 11.391 25.443 25.443v167.643c.001 14.052-11.39 25.443-25.442 25.443z" fill="#91c3f5"/><path d="m237.215 346.737c-14.052 0-25.444-11.391-25.444-25.443v18c0 14.052 11.391 25.443 25.443 25.443 14.052 0 25.443-11.391 25.443-25.443v-18c.001 14.052-11.39 25.443-25.442 25.443z" fill="#80aceb"/></g><g><path d="m489.261 269.079-22.592-69.511c-11.384-35.029-31.753-66.699-58.906-91.585-27.152-24.888-60.473-42.428-96.36-50.725l-49.61-11.47c-.011-.002-137.658-29.949-137.658-29.949-4.06-.886-8.056 1.69-8.939 5.743-.882 4.055 1.689 8.057 5.743 8.939l137.467 29.908c.001 0 .289.067.289.067 31.363 6.91 54.557 32.913 57.743 64.772 3.896 38.944 12.334 82.244 25.083 128.699 16.962 61.809 16.135 113.476 12.455 145.933-2.893 25.523-7.952 43.492-10.551 51.535h-100.321c-4.15 0-7.513 3.363-7.513 7.513s3.363 7.513 7.513 7.513h101.396l15.902 26.664c.66 1.107.3 2.08.026 2.561-.273.481-.924 1.288-2.213 1.288h-319.331c-1.289 0-1.94-.807-2.214-1.288-.273-.48-.633-1.454.027-2.56l15.902-26.665h160.452c4.15 0 7.513-3.363 7.513-7.513s-3.363-7.513-7.513-7.513h-159.159c-12.115-40.086-16.734-75.763-14.475-111.817 2.103-33.569 9.884-63.313 18.12-94.803 10.257-39.218 20.864-79.77 21.926-132.155.589-28.991-17.071-66.774-31.99-93.365-1.015-2.53.331-4.325 3.049-4.093l41.062 8.934c4.061.886 8.057-1.691 8.939-5.743.882-4.055-1.689-8.057-5.743-8.939l-41.063-8.938c-14.453-3.713-27.127 13.391-19.349 26.128 11.465 20.437 30.62 58.748 30.073 85.708-1.027 50.608-11.405 90.286-21.441 128.658-16.434 62.832-31.96 122.223-2.835 216.963l-16.373 27.456c-3.28 5.501-3.351 12.109-.188 17.678 3.164 5.569 8.875 8.894 15.28 8.894h319.332c6.404 0 12.116-3.324 15.279-8.894 3.164-5.568 3.093-12.178-.187-17.679l-16.267-27.277c2.601-7.62 8.469-27.082 11.792-55.907 3.908-33.902 4.857-87.837-12.82-152.255-11.318-41.242-19.159-79.876-23.381-115.056 32.142 11.212 57.824 36.152 69.845 68.416 3.329 9.219 17.605 3.809 14.082-5.246-14.44-38.757-46.316-68.159-85.859-79.538-2.853-17.899-10.988-34.037-22.887-46.715l.207.048c33.366 7.714 64.346 24.023 89.591 47.161 25.246 23.138 44.184 52.584 54.769 85.153l22.592 69.511c1.419 4.365.685 8.999-2.013 12.713s-6.877 5.843-11.467 5.843c-5.889 0-11.227-3.708-13.282-9.226l-22.386-60.088c-1.45-3.889-5.78-5.866-9.664-4.418-3.889 1.449-5.867 5.776-4.418 9.663l22.386 60.087c4.235 11.369 15.232 19.007 27.364 19.007 9.456 0 18.067-4.388 23.625-12.038 5.554-7.647 7.066-17.193 4.144-26.187z"/><path d="m237.215 372.237c18.165 0 32.943-14.778 32.943-32.943v-167.643c0-18.166-14.778-32.944-32.943-32.944s-32.943 14.778-32.943 32.944v167.643c-.001 18.165 14.778 32.943 32.943 32.943zm0-218.53c9.894 0 17.943 8.05 17.943 17.944v167.643c0 9.894-8.05 17.943-17.943 17.943-9.894 0-17.943-8.05-17.943-17.943v-7.934h12.359c4.143 0 7.5-3.357 7.5-7.5s-3.357-7.5-7.5-7.5h-12.359v-27.285h12.359c4.143 0 7.5-3.357 7.5-7.5s-3.357-7.5-7.5-7.5h-12.359v-27.285h12.359c4.143 0 7.5-3.357 7.5-7.5s-3.357-7.5-7.5-7.5h-12.359v-27.285h12.359c4.143 0 7.5-3.357 7.5-7.5s-3.357-7.5-7.5-7.5h-12.359v-17.854c-.001-9.894 8.049-17.944 17.943-17.944z"/></g></g></svg>