<svg id="Layer_1" enable-background="new 0 0 512 512" height="512" viewBox="0 0 512 512" width="512" xmlns="http://www.w3.org/2000/svg"><path d="m496 95.999v400h-480v-400l240-80z" fill="#ece2e2"/><path d="m496 95.999v320h-160c-176.239 0-320-142.782-320-320l240-80z" fill="#f2f2f2"/><path d="m80 159.999h352v336h-352z" fill="#999"/><path d="m80 159.999h352v64h-352z" fill="#a07765"/><path d="m80 223.999h352v64h-352z" fill="#a07765"/><path d="m80 223.999h352v32h-352z" fill="#c79a83"/><path d="m80 159.999h352v32h-352z" fill="#c79a83"/><path d="m501.06 80.819-240-80c-3.28-1.09-6.84-1.09-10.12 0l-240 80c-6.53 2.18-10.94 8.29-10.94 15.18v400c0 8.84 7.16 16 16 16h480c8.84 0 16-7.16 16-16v-400c0-6.89-4.41-13-10.94-15.18zm-405.06 159.18h320v32h-320zm320-32h-320v-32h320zm-320 272v-176h320v176zm384 0h-32c0-9.803 0-311.147 0-320 0-8.84-7.16-16-16-16h-352c-8.84 0-16 7.16-16 16v320h-32v-372.47l224-74.66 224 74.66z"/><circle cx="256" cy="443.999" r="20"/><path d="m207.917 395.916c-6.248 6.248-6.248 16.379 0 22.627 6.248 6.25 16.378 6.248 22.627 0 14.067-14.068 36.841-14.071 50.911 0 3.125 3.125 7.219 4.687 11.314 4.687 14.125 0 21.423-17.205 11.314-27.313-26.574-26.576-69.588-26.58-96.166-.001z"/><path d="m173.976 361.974c-6.249 6.248-6.249 16.379 0 22.627 6.249 6.25 16.38 6.248 22.627 0 32.752-32.75 86.042-32.75 118.794 0 3.124 3.124 7.219 4.687 11.313 4.687 14.126 0 21.423-17.205 11.313-27.313-45.227-45.229-118.819-45.229-164.047-.001z"/></svg>