<svg id="Capa_1" enable-background="new 0 0 512 512" height="512" viewBox="0 0 512 512" width="512" xmlns="http://www.w3.org/2000/svg"><g><g><g clip-rule="evenodd" fill-rule="evenodd"><path d="m70.25 504.5h371.5v-75c-123.833 0-247.666 0-371.5 0z" fill="#bfbec1"/><path d="m115.25 429.5h30v-392h221.5v392h30v-422h-281.5z" fill="#bfbec1"/><path d="m145.25 429.5h221.5v-392h-221.5zm184-260.041h-146.501v-86.96h146.501zm-124.001 121.821c0 19.844-30 19.844-30 0v-39.644c0-19.711 30-19.712 30 0z" fill="#f492a7"/><path d="m175.249 291.28c0 19.844 30 19.844 30 0v-39.644c0-19.712-30-19.711-30 0z" fill="#bfbec1"/><path d="m182.749 82.499h146.501v86.959h-146.501z" fill="#c4e5f9"/><path d="m70.25 429.5h30v75h-30z" fill="#9c9c9f"/><path d="m145.25 429.5h29.999v-138.22-39.644-214.136h-29.999z" fill="#f05d7a"/><path d="m182.749 82.499h30v86.959h-30z" fill="#a4d7f5"/></g><g><path d="m419.25 467h-60v-15h60zm-75 0h-15v-15h15z" fill="#fff"/></g><g><path d="m306.751 119.999h-30v-15h30zm-45.001 0h-15v-15h15z" fill="#fff"/></g><g><path d="m344.25 407h-15v-45h15zm0-60h-15v-15h15z" fill="#fff"/></g></g><g><path d="m0 497h15v15h-15z"/><path d="m512 497h-62.75v-75h-45v-422h-251.5v15h236.5v407h-15v-332h-15v332h-95.75v15h170.75v60h-15v15h30 62.75z"/><path d="m77.75 437h170.75v-15h-125.75v-407h14.999v-15h-29.999v422h-45v75h-32.75v15h32.75 341.5v-15h-326.5z"/><path d="m152.75 45h206.5v29.999h15v-44.999h-236.5v377h15z"/><path d="m306.751 161.958v15h29.999v-101.958h-161.501v101.958h116.501v-15h-101.501v-71.958h131.501v71.958z"/><path d="m212.749 263.958v-12.322c0-14.629-11.319-22.284-22.5-22.284s-22.5 7.654-22.5 22.284v39.644c0 14.695 11.319 22.383 22.5 22.383s22.5-7.688 22.5-22.383v-12.322h-15v12.322c0 7.027-6.248 7.383-7.5 7.383s-7.5-.356-7.5-7.383v-39.644c0-6.933 6.248-7.284 7.5-7.284 2.08 0 4.037.669 5.37 1.837 1.433 1.255 2.129 3.037 2.129 5.446v12.322h15.001z"/></g></g></svg>