<svg id="Capa_1" enable-background="new 0 0 512 512" height="512" viewBox="0 0 512 512" width="512" xmlns="http://www.w3.org/2000/svg"><g><g><g clip-rule="evenodd" fill-rule="evenodd"><path d="m106 37.5h300v218.5h-300z" fill="#c4e5f9"/><path d="m106 7.5h300v30h-300z" fill="#bfbec1"/><path d="m136 474.5h44.704v30h-44.704z" fill="#bfbec1"/><path d="m331.296 474.5h44.704v30h-44.704z" fill="#bfbec1"/><path d="m106 256h300v218.5h-300z" fill="#c4e5f9"/><path d="m143.5 71.963h74.529v149.575h-74.529z" fill="#f492a7"/><path d="m338.409 101.75c8.262 0 15 6.738 15 15v60c0 8.262-6.738 15-15 15-8.262 0-15-6.738-15-15v-60c0-8.262 6.738-15 15-15z" fill="#bfbec1"/><path d="m338.409 320.25c8.262 0 15 6.738 15 15v60c0 8.261-6.738 15-15 15-8.262 0-15-6.738-15-15v-60c0-8.262 6.738-15 15-15z" fill="#bfbec1"/><path d="m106 37.5h29.773v218.5h-29.773z" fill="#a4d7f5"/><path d="m106 7.5h29.773v30h-29.773z" fill="#9c9c9f"/><path d="m106 256h29.773v218.5h-29.773z" fill="#a4d7f5"/><path d="m143.5 71.963h37.264v149.575h-37.264z" fill="#f05d7a"/><path d="m136 474.5h22.352v30h-22.352z" fill="#9c9c9f"/></g><g><path d="m360.908 452h-15v-15h15zm-30 0h-59.999v-15h59.999zm52.592-377h-15v-15h15zm-30 0h-15v-15h15z" fill="#fff"/></g><path clip-rule="evenodd" d="m331.296 474.5h22.352v30h-22.352z" fill="#9c9c9f" fill-rule="evenodd"/></g><g><path d="m98.5 0v37.5 7.5 437h30v30h59.704v-30h135.592v30h59.704v-30h30v-30h-15v15h-285v-203.5h59.765v-15h-59.765v-203.5h179.999v-15h-179.999v-15h285v15h-90.001v15h90.001v203.5h-210.236v15h210.236v173.5h15v-392-7.5-37.5zm74.704 497h-29.704v-15h29.704zm195.296 0h-29.704v-15h29.704z"/><path d="m225.528 64.463h-89.528v164.575h89.528zm-15 15v32.223l-37.265 14.999v30.001l-22.263 8.961v-86.184zm-59.528 134.575v-32.223l37.264-14.999v-30.001l22.265-8.961v86.184z"/><path d="m360.908 176.75v-60c0-12.406-10.094-22.5-22.5-22.5s-22.499 10.094-22.499 22.5v60c0 12.406 10.094 22.5 22.5 22.5s22.499-10.094 22.499-22.5zm-29.999 0v-60c0-4.136 3.364-7.5 7.499-7.5h.001c4.135 0 7.499 3.364 7.499 7.5v60c0 4.136-3.364 7.5-7.5 7.5-4.135 0-7.499-3.364-7.499-7.5z"/><path d="m315.909 335.25v60c0 12.406 10.094 22.5 22.5 22.5s22.499-10.094 22.499-22.5v-60c0-12.406-10.094-22.5-22.5-22.5s-22.499 10.094-22.499 22.5zm29.999 0v60c0 4.136-3.364 7.5-7.5 7.5-4.135 0-7.499-3.364-7.499-7.5v-60c0-4.136 3.364-7.5 7.499-7.5h.001c4.135 0 7.499 3.364 7.499 7.5z"/></g></g></svg>