<svg id="Capa_1" enable-background="new 0 0 512 512" height="512" viewBox="0 0 512 512" width="512" xmlns="http://www.w3.org/2000/svg"><g><g><circle cx="256" cy="256" fill="#a6aec4" r="248"/><path d="m256 486c-133.952 0-243.081-106.205-247.82-239-.107 2.988-.18 5.986-.18 9 0 136.967 111.033 248 248 248s248-111.033 248-248c0-3.014-.073-6.012-.18-9-4.739 132.795-113.868 239-247.82 239z" fill="#959db0"/><path d="m173.86 445.303v44.751c25.71 9.023 53.348 13.946 82.14 13.946s56.43-4.923 82.14-13.946v-44.751c-25.172 10.938-52.944 17.015-82.14 17.015s-56.968-6.077-82.14-17.015z" fill="#eceaec"/><path d="m256 486c-28.792 0-56.43-4.923-82.14-13.946v18c25.71 9.023 53.348 13.946 82.14 13.946s56.43-4.923 82.14-13.946v-18c-25.71 9.023-53.348 13.946-82.14 13.946z" fill="#dad8db"/><circle cx="256" cy="256" fill="#434d59" r="206.318"/><path d="m256 444.318c-110.93 0-201.398-87.549-206.111-197.318-.128 2.985-.207 5.983-.207 9 0 113.946 92.372 206.318 206.318 206.318s206.318-92.372 206.318-206.318c0-3.017-.079-6.015-.207-9-4.713 109.769-95.181 197.318-206.111 197.318z" fill="#3b434d"/><path d="m173.86 127.965v129.651c0 22.091 17.909 40 40 40h84.279c22.091 0 40-17.909 40-40v-129.651z" fill="#eceaec"/><path d="m298.14 279.616h-84.28c-22.091 0-40-17.909-40-40v18c0 22.091 17.909 40 40 40h84.279c22.091 0 40-17.909 40-40v-18c.001 22.091-17.908 40-39.999 40z" fill="#dad8db"/><path d="m173.86 66.696v61.268h164.28v-61.268c-25.172-10.937-52.944-17.014-82.14-17.014s-56.968 6.077-82.14 17.014z" fill="#df667c"/><path d="m173.86 109.965h164.279v18h-164.279z" fill="#dc4857"/><ellipse cx="255.997" cy="191.818" fill="#434d59" rx="27.839" ry="27.839" transform="matrix(.383 -.924 .924 .383 -19.186 354.923)"/><path d="m255.997 201.657c-12.225 0-22.601-7.883-26.344-18.84-.965 2.824-1.496 5.849-1.496 9 0 15.375 12.464 27.84 27.839 27.84s27.839-12.464 27.839-27.84c0-3.151-.531-6.176-1.496-9-3.741 10.958-14.118 18.84-26.342 18.84z" fill="#3b434d"/></g><g><path d="m452.079 91.409h39.81c4.151 0 7.515-3.364 7.515-7.515s-3.364-7.515-7.515-7.515h-38.989l30.893-32.055c2.88-2.988 2.792-7.746-.197-10.625-2.987-2.879-7.746-2.791-10.625.197l-30.235 31.372v-38.042c0-4.151-3.364-7.515-7.515-7.515s-7.515 3.364-7.515 7.515v38.889c-47.144-42.731-107.627-66.115-171.706-66.115-64.081 0-124.567 23.386-171.713 66.12v-38.894c0-4.151-3.364-7.515-7.515-7.515s-7.515 3.364-7.515 7.515v38.043l-30.236-31.373c-2.882-2.989-7.638-3.075-10.625-.197-2.989 2.881-3.076 7.637-.197 10.625l30.894 32.056h-38.99c-4.151 0-7.515 3.364-7.515 7.515s3.364 7.515 7.515 7.515h39.817c-38.781 46.042-59.92 103.687-59.92 164.59 0 47.908 13.317 94.626 38.513 135.103 2.193 3.525 6.83 4.601 10.35 2.409 3.524-2.193 4.602-6.828 2.409-10.35-23.71-38.093-36.243-82.064-36.243-127.162 0-64.366 25.065-124.879 70.578-170.392 45.514-45.513 106.027-70.579 170.393-70.579s124.879 25.065 170.392 70.578c45.513 45.514 70.578 106.026 70.578 170.392s-25.066 124.879-70.578 170.392c-23.398 23.397-50.766 41.374-80.577 53.336v-29.183c7.932-3.664 15.656-7.822 23.126-12.465 32.908-20.453 59.697-49.432 77.472-83.801 1.906-3.687.463-8.22-3.223-10.127-3.687-1.906-8.221-.464-10.127 3.223-34.398 66.514-102.244 107.833-177.063 107.833-109.843 0-199.207-89.364-199.207-199.207 0-39.505 11.538-77.682 33.367-110.405 2.303-3.453 1.371-8.118-2.081-10.422-3.452-2.302-8.117-1.372-10.422 2.081-23.482 35.201-35.894 76.263-35.894 118.746 0 57.225 22.285 111.025 62.749 151.488 18.167 18.167 39.027 32.655 61.673 43.122v29.087c-37.839-15.172-71.62-39.932-98.018-72.733-2.601-3.234-7.332-3.746-10.565-1.143-3.233 2.602-3.745 7.333-1.143 10.566 48.9 60.764 121.63 95.613 199.541 95.613 68.381 0 132.667-26.628 181.02-74.98 48.352-48.353 74.98-112.639 74.98-181.02 0-60.903-21.139-118.548-59.921-164.591zm-270.865 393.742v-28.286c23.611 8.777 48.843 13.372 74.786 13.372 25.709 0 51.008-4.591 74.786-13.44v28.392c-23.833 7.749-48.999 11.783-74.786 11.783-25.788-.001-50.967-4.074-74.786-11.821z"/><path d="m449.125 330.274c.808.277 1.631.409 2.441.409 3.12 0 6.036-1.96 7.107-5.076 7.673-22.346 11.564-45.766 11.564-69.607 0-57.225-22.285-111.025-62.748-151.488s-94.264-62.749-151.489-62.749c-60.604 0-118.64 25.842-159.227 70.902-2.778 3.084-2.53 7.836.554 10.613 3.083 2.779 7.836 2.531 10.613-.554 16.652-18.487 36.465-33.489 58.246-44.489v179.384c0 26.243 21.35 47.593 47.593 47.593h84.444c26.243 0 47.593-21.35 47.593-47.593v-179.397c64.844 32.893 109.391 100.228 109.391 177.778 0 22.176-3.616 43.953-10.75 64.726-1.346 3.925.743 8.2 4.668 9.548zm-118.339-72.656c0 17.956-14.608 32.564-32.564 32.564h-84.444c-17.956 0-32.564-14.608-32.564-32.564v-122.389h149.571v122.389zm0-137.418h-149.572v-48.785c23.534-9.541 48.906-14.622 74.786-14.622 26.437 0 51.681 5.189 74.786 14.582z"/><path d="m255.997 227.101c19.524 0 35.408-15.885 35.408-35.409 0-19.525-15.884-35.408-35.408-35.408-19.525 0-35.409 15.883-35.409 35.408 0 19.524 15.885 35.409 35.409 35.409zm0-55.788c11.237 0 20.379 9.142 20.379 20.379 0 11.238-9.142 20.38-20.379 20.38-11.238 0-20.38-9.142-20.38-20.38 0-11.237 9.142-20.379 20.38-20.379z"/><path d="m221.585 260.495h18.954c4.151 0 7.515-3.364 7.515-7.515s-3.364-7.515-7.515-7.515h-18.954c-4.151 0-7.515 3.364-7.515 7.515s3.364 7.515 7.515 7.515z"/><path d="m271.454 245.466c-4.151 0-7.515 3.364-7.515 7.515s3.364 7.515 7.515 7.515h18.954c4.151 0 7.515-3.364 7.515-7.515s-3.364-7.515-7.515-7.515z"/></g></g></svg>