<svg id="Capa_1" enable-background="new 0 0 512 512" height="512" viewBox="0 0 512 512" width="512" xmlns="http://www.w3.org/2000/svg"><g><path d="m256 419.875c-29.963 0-54.253-24.29-54.253-54.253v-42.725h108.507v42.725c-.001 29.963-24.291 54.253-54.254 54.253z" fill="#fec165"/><g><path d="m256 266.175c-4.142 0-7.5-3.358-7.5-7.5v-251.175c0-4.142 3.358-7.5 7.5-7.5s7.5 3.358 7.5 7.5v251.175c0 4.142-3.358 7.5-7.5 7.5z" fill="#465a61"/></g><path d="m291.869 224.902h-71.738v-72.215c0-10.171 8.245-18.417 18.417-18.417h34.905c10.171 0 18.417 8.245 18.417 18.417v72.215z" fill="#596c76"/><path d="m291.869 178.015v1.571l-55.667-4.689c-70.892 9.658-125.524 70.431-125.524 143.974v42.515c0 5.523 4.477 10 10 10h270.643c5.523 0 10-4.477 10-10v-42.515c.001-67.879-46.541-124.884-109.452-140.856z" fill="#7a8c98"/><g><path d="m256 512c-4.142 0-7.5-3.358-7.5-7.5v-45.045c0-4.142 3.358-7.5 7.5-7.5s7.5 3.358 7.5 7.5v45.045c0 4.142-3.358 7.5-7.5 7.5z" fill="#fdb441"/></g><g><path d="m368.691 468.919c-1.921 0-3.841-.733-5.306-2.199l-31.82-31.852c-2.927-2.931-2.925-7.679.005-10.607 2.931-2.927 7.68-2.925 10.607.005l31.82 31.852c2.927 2.931 2.925 7.679-.005 10.607-1.465 1.463-3.383 2.194-5.301 2.194z" fill="#fdb441"/></g><g><path d="m143.309 468.919c-1.918 0-3.836-.731-5.301-2.194-2.93-2.928-2.933-7.676-.005-10.607l31.82-31.852c2.928-2.93 7.677-2.932 10.607-.005 2.93 2.928 2.933 7.676.005 10.607l-31.82 31.852c-1.465 1.466-3.386 2.199-5.306 2.199z" fill="#fdb441"/></g><path d="m256 173.55c-6.732 0-13.354.468-19.843 1.354 70.87 9.678 125.479 70.44 125.479 143.967v42.515c0 5.523-4.477 10-10 10h39.685c5.523 0 10-4.477 10-10v-42.515c.001-80.259-65.062-145.321-145.321-145.321z" fill="#596c76"/></g></svg>