<svg id="Capa_1" enable-background="new 0 0 512 512" height="512" viewBox="0 0 512 512" width="512" xmlns="http://www.w3.org/2000/svg"><g><g><g><path d="m479.146 390.856h-446.291c-14.002 0-25.353-11.351-25.353-25.353v-39.091h496.998v39.091c0 14.001-11.352 25.353-25.354 25.353z" fill="#d9e7ec"/></g><g><path d="m7.501 326.411v-257.785c0-14.002 11.351-25.353 25.353-25.353h446.291c14.002 0 25.353 11.351 25.353 25.353v257.785z" fill="#596c76"/></g><g><path d="m7.501 326.411v-257.785c0-14.002 11.351-25.353 25.353-25.353h446.291c14.002 0 25.353 11.351 25.353 25.353v257.785z" fill="#596c76"/></g><g><path d="m504.502 68.623v257.792h-20.023v-257.792c0-13.996-11.353-25.35-25.36-25.35h20.023c14.007 0 25.36 11.353 25.36 25.35z" fill="#465a61"/></g><g><path d="m504.5 326.41v39.086c0 14.006-11.353 25.36-25.36 25.36h-20.023c13.996 0 25.35-11.353 25.35-25.36v-39.086z" fill="#c5d3dd"/></g><g><path d="m304.476 390.856h-96.951s-.907 57.038-8.165 77.872h113.281c-7.258-20.835-8.165-77.872-8.165-77.872z" fill="#c5d3dd"/></g><g><path d="m305.188 410.884h-98.375c.581-11.583.711-20.023.711-20.023h96.954c-.001-.001.129 8.44.71 20.023z" fill="#c8effe"/></g><g><path d="m305.188 410.884h-98.375c.581-11.583.711-20.023.711-20.023h96.954c-.001-.001.129 8.44.71 20.023z" fill="#b6c4cf"/></g><g><g><path d="m473.194 326.415h-434.388v-237.611c0-6.123 4.964-11.087 11.087-11.087h412.214c6.123 0 11.087 4.964 11.087 11.087z" fill="#c8effe"/></g><g><path d="m473.195 88.809v237.606h-20.023v-237.606c0-6.127-4.966-11.093-11.083-11.093h20.023c6.117 0 11.083 4.966 11.083 11.093z" fill="#99e6fc"/></g></g></g><g><path d="m430.676 326.172h-150.492v-197.223c0-1.096.889-1.985 1.985-1.985h146.522c1.096 0 1.985.889 1.985 1.985z" fill="#fdb441"/></g><g><path d="m430.676 128.951v197.221h-20.023v-197.221c0-1.101-.891-1.982-1.982-1.982h20.023c1.091 0 1.982.881 1.982 1.982z" fill="#fea613"/></g><g><path d="m238.909 366.134h34.183c4.143 0 7.501-3.358 7.501-7.501s-3.358-7.501-7.501-7.501h-34.183c-4.143 0-7.501 3.358-7.501 7.501s3.358 7.501 7.501 7.501z"/><circle cx="160.447" cy="214.537" r="7.509"/><path d="m174.914 197.075c1.412 2.321 3.882 3.602 6.414 3.602 1.329 0 2.675-.353 3.894-1.095 3.538-2.154 4.661-6.769 2.506-10.307-5.848-9.607-16.047-15.342-27.282-15.342-11.234 0-21.431 5.733-27.279 15.337-2.155 3.538-1.032 8.153 2.506 10.308 3.537 2.155 8.152 1.034 10.308-2.505 3.102-5.096 8.51-8.137 14.466-8.137 5.956-.002 11.364 3.042 14.467 8.139z"/><path d="m197.904 182.855c1.412 2.321 3.882 3.602 6.414 3.602 1.329 0 2.675-.353 3.893-1.094 3.539-2.154 4.662-6.768 2.507-10.307-10.775-17.705-29.569-28.275-50.273-28.275-20.7 0-39.492 10.567-50.268 28.265-2.155 3.538-1.032 8.153 2.506 10.307 3.536 2.155 8.152 1.033 10.308-2.506 8.031-13.19 22.033-21.065 37.454-21.065 15.424 0 29.428 7.877 37.459 21.073z"/><path d="m91.933 169.704c3.539 2.155 8.152 1.034 10.308-2.506 12.48-20.497 34.238-32.733 58.203-32.733 23.969 0 45.731 12.241 58.21 32.745 1.412 2.321 3.882 3.602 6.414 3.602 1.329 0 2.675-.353 3.893-1.094 3.538-2.154 4.662-6.768 2.507-10.307-15.223-25.013-41.774-39.946-71.024-39.946-29.243 0-55.791 14.928-71.017 39.933-2.155 3.536-1.032 8.151 2.506 10.306z"/><path d="m479.146 35.772h-446.292c-18.116 0-32.854 14.738-32.854 32.854v170.403c0 4.142 3.358 7.501 7.501 7.501s7.501-3.358 7.501-7.501v-170.403c0-9.844 8.009-17.853 17.853-17.853h446.292c9.844 0 17.853 8.009 17.853 17.853v250.284h-16.302v-230.111c0-10.249-8.339-18.588-18.588-18.588h-412.217c-10.249 0-18.588 8.338-18.588 18.588v230.111h-16.303v-45.17c0-4.143-3.358-7.501-7.501-7.501s-7.501 3.358-7.501 7.501v91.762c0 18.116 14.738 32.854 32.854 32.854h166.977c-.559 17.144-2.269 46.808-6.118 62.87h-26.029c-4.143 0-7.501 3.358-7.501 7.501s3.358 7.501 7.501 7.501h176.632c4.143 0 7.501-3.358 7.501-7.501 0-4.142-3.358-7.501-7.501-7.501h-26.029c-3.85-16.062-5.56-45.726-6.119-62.87h166.977c18.116 0 32.854-14.739 32.854-32.854v-296.876c.001-18.116-14.737-32.854-32.853-32.854zm-432.839 53.027c0-1.978 1.609-3.586 3.586-3.586h412.214c1.978 0 3.586 1.608 3.586 3.586v230.111h-27.517v-189.961c0-5.23-4.255-9.486-9.485-9.486h-27.497c-4.143 0-7.501 3.358-7.501 7.501s3.358 7.501 7.501 7.501h21.981v184.207h-135.49v-184.207h78.924c4.143 0 7.501-3.358 7.501-7.501s-3.358-7.501-7.501-7.501h-84.44c-5.23 0-9.485 4.255-9.485 9.486v189.961h-226.377zm162.755 372.428c3.974-19.448 5.34-49.13 5.775-62.87h82.327c.436 13.741 1.801 43.422 5.775 62.87zm287.936-95.725c0 9.844-8.009 17.853-17.853 17.853h-446.291c-9.844 0-17.853-8.009-17.853-17.853v-31.59h481.997z"/><path d="m302.166 168.165c0 4.143 3.358 7.501 7.501 7.501h91.528c4.143 0 7.501-3.358 7.501-7.501s-3.358-7.501-7.501-7.501h-91.528c-4.143 0-7.501 3.359-7.501 7.501z"/><path d="m309.667 214.601h45.764c4.143 0 7.501-3.358 7.501-7.501s-3.358-7.501-7.501-7.501h-45.764c-4.143 0-7.501 3.358-7.501 7.501s3.358 7.501 7.501 7.501z"/><path d="m401.195 238.535h-91.528c-4.143 0-7.501 3.358-7.501 7.501s3.358 7.501 7.501 7.501h91.528c4.143 0 7.501-3.358 7.501-7.501s-3.358-7.501-7.501-7.501z"/><path d="m355.431 277.47h-45.764c-4.143 0-7.501 3.358-7.501 7.501s3.358 7.501 7.501 7.501h45.764c4.143 0 7.501-3.358 7.501-7.501s-3.358-7.501-7.501-7.501z"/><path d="m226.105 238.535h-131.315c-4.143 0-7.501 3.358-7.501 7.501s3.358 7.501 7.501 7.501h131.315c4.143 0 7.501-3.358 7.501-7.501s-3.357-7.501-7.501-7.501z"/><path d="m226.105 277.47h-131.315c-4.143 0-7.501 3.358-7.501 7.501s3.358 7.501 7.501 7.501h131.315c4.143 0 7.501-3.358 7.501-7.501s-3.357-7.501-7.501-7.501z"/></g></g></svg>