<?xml version="1.0" encoding="iso-8859-1"?>
<!-- Generator: Adobe Illustrator 19.0.0, SVG Export Plug-In . SVG Version: 6.00 Build 0)  -->
<svg version="1.1" id="Capa_1" xmlns="http://www.w3.org/2000/svg" xmlns:xlink="http://www.w3.org/1999/xlink" x="0px" y="0px"
	 viewBox="0 0 512 512" style="enable-background:new 0 0 512 512;" xml:space="preserve">
<rect x="155.665" y="113" style="fill:#333333;" width="200.67" height="399"/>
<rect x="255.995" y="113" width="100.33" height="399"/>
<path style="fill:#FFFFFF;" d="M270.995,203.001v-21.668h-30v21.668c-21.568,6.465-37.333,26.487-37.333,50.132
	c0,28.857,23.477,52.333,52.333,52.333s52.333-23.477,52.333-52.333C308.328,229.489,292.563,209.467,270.995,203.001z
	 M255.995,275.466c-12.315,0-22.333-10.019-22.333-22.333S243.68,230.8,255.995,230.8c12.314,0,22.333,10.018,22.333,22.333
	C278.328,265.448,268.31,275.466,255.995,275.466z"/>
<rect x="214.325" y="350.83" style="fill:#4BBAED;" width="30" height="30"/>
<rect x="267.665" y="350.83" style="fill:#C23913;" width="30" height="30"/>
<rect x="214.325" y="404.17" style="fill:#FFFFFF;" width="30" height="30"/>
<rect x="267.665" y="404.17" style="fill:#FFDB2D;" width="30" height="30"/>
<g>
	<path style="fill:#4BBAED;" d="M226.974,56.646l21.271,21.271c2.21-1.657,4.888-2.583,7.75-2.583s5.54,0.926,7.75,2.584
		l21.271-21.271c-7.86-7.181-18.213-11.313-29.021-11.313S234.834,49.465,226.974,56.646z"/>
	<path style="fill:#4BBAED;" d="M255.995,30c14.937,0,29.186,5.602,40.117,15.55l21.242-21.242C300.802,8.757,278.934,0,255.995,0
		s-44.808,8.757-61.359,24.308l21.242,21.242C226.808,35.602,241.057,30,255.995,30z"/>
</g>
<path style="fill:#E6E6E6;" d="M270.995,203.001v-21.668h-15V230.8l0,0c12.314,0,22.333,10.018,22.333,22.333
	c0,12.315-10.018,22.333-22.333,22.333l0,0v30l0,0c28.856,0,52.333-23.477,52.333-52.333
	C308.328,229.489,292.563,209.467,270.995,203.001z"/>
<g>
</g>
<g>
</g>
<g>
</g>
<g>
</g>
<g>
</g>
<g>
</g>
<g>
</g>
<g>
</g>
<g>
</g>
<g>
</g>
<g>
</g>
<g>
</g>
<g>
</g>
<g>
</g>
<g>
</g>
</svg>
