<svg id="_x33_0" enable-background="new 0 0 64 64" height="512" viewBox="0 0 64 64" width="512" xmlns="http://www.w3.org/2000/svg"><g><g><g><path d="m10 14h48v42h-48z" fill="#aab2bd"/></g><g><path d="m38 60c0 1.1.9 2 2 2h-28c-1.1 0-2-.9-2-2v-4h28z" fill="#969faa"/></g><g><path d="m54 2h-40c-2.21 0-4 1.79-4 4v8h48v-8c0-2.21-1.79-4-4-4z" fill="#ccd1d9"/></g><g><path d="m14 6h12v4h-12z" fill="#b4dd7f"/></g><g><circle cx="36" cy="8" fill="#ff826e" r="2"/></g><g><circle cx="44" cy="8" fill="#ff826e" r="2"/></g><g><circle cx="52" cy="8" fill="#ff826e" r="2"/></g><g><path d="m23.96 34h24c-.14 1.8-.64 3.49-1.43 5h-4.53-13-5.53c-.21-.39-.39-.8-.56-1.21v-.01c.56-1.16.92-2.44 1.04-3.78z" fill="#ccd1d9"/></g><g><path d="m47.96 34h-24-.01c.03-.33.05-.66.05-1 0-1.04-.14-2.05-.42-3h.01 24.06c.23.96.35 1.97.35 3 0 .34-.01.67-.04 1z" fill="#ccd1d9"/></g><g><path d="m47.65 30h-24.06-.01c-.17-.62-.39-1.21-.67-1.78 1.9-4.82 6.6-8.22 12.09-8.22 6.15 0 11.3 4.27 12.65 10z" fill="#69d6f4"/></g><g><path d="m29 39v5.54c-2.37-1.23-4.3-3.17-5.53-5.54z" fill="#69d6f4"/></g><g><path d="m42 42c-1.1 0-2 .9-2 2v1c-1.54.65-3.23 1-5 1-.49 0-.97-.03-1.45-.08l8.45-6.92h4.53c-.58 1.1-1.3 2.11-2.15 3z" fill="#69d6f4"/></g><g><path d="m42 39-8.45 6.92h-.01l-2.13 1.75c-.27.21-.6.33-.94.33-.81 0-1.47-.66-1.47-1.47v-1.99-5.54z" fill="#b4dd7f"/></g><g><circle cx="13" cy="33" fill="#e6e9ed" r="11"/></g><g><path d="m6 33c0 1.08.24 2.09.68 3h-.01-4.25c-.28-.95-.42-1.96-.42-3s.14-2.05.42-3h4.25.01c-.44.91-.68 1.93-.68 3z" fill="#ccd1d9"/></g><g><path d="m13 26c3.87 0 7 3.13 7 7s-3.13 7-7 7c-2.8 0-5.2-1.63-6.32-4-.44-.91-.68-1.92-.68-3 0-1.07.24-2.09.68-3 1.12-2.37 3.52-4 6.32-4z" fill="#69d6f4"/></g><g><path d="m52 42v2c-1.48 0-2.77.8-3.46 2h-8.54v-1-1c0-1.1.9-2 2-2h2.38z" fill="#fc6e51"/></g><g><path d="m48 60c0 1.1.9 2 2 2h-10c-1.1 0-2-.9-2-2v-4-8c0-1.1.9-2 2-2h8.54c-.34.59-.54 1.27-.54 2v2h-6v6h6z" fill="#ff826e"/></g><g><path d="m48 50v2 4h-6v-6z" fill="#e6e9ed"/></g><g><path d="m58 38v6h-6v-2-4c0-1.1.9-2 2-2h2c1.1 0 2 .9 2 2z" fill="#ccd1d9"/></g><g><path d="m49.95 50.7-1.95 1.3v-2-2c0-.73.2-1.41.54-2 .69-1.2 1.98-2 3.46-2h6c2.21 0 4 1.79 4 4v5h-2.49c-1.61 0-3.15-.64-4.28-1.77-.79-.79-1.85-1.23-2.96-1.23-.83 0-1.64.24-2.32.7z" fill="#fcd770"/></g><g><path d="m62 53v7c0 1.1-.9 2-2 2h-10c-1.1 0-2-.9-2-2v-4-4l1.95-1.3c.68-.46 1.49-.7 2.32-.7 1.11 0 2.17.44 2.96 1.23 1.13 1.13 2.67 1.77 4.28 1.77z" fill="#ffeaa7"/></g></g><g><path d="m14 28.172h2v5.657h-2z" transform="matrix(.707 -.707 .707 .707 -17.527 19.686)"/><path d="m11 29.757h2v8.485h-2z" transform="matrix(.707 -.707 .707 .707 -20.527 18.444)"/><path d="m36 11c1.654 0 3-1.346 3-3s-1.346-3-3-3-3 1.346-3 3 1.346 3 3 3zm0-4c.552 0 1 .449 1 1s-.448 1-1 1-1-.449-1-1 .448-1 1-1z"/><path d="m44 11c1.654 0 3-1.346 3-3s-1.346-3-3-3-3 1.346-3 3 1.346 3 3 3zm0-4c.552 0 1 .449 1 1s-.448 1-1 1-1-.449-1-1 .448-1 1-1z"/><path d="m52 11c1.654 0 3-1.346 3-3s-1.346-3-3-3-3 1.346-3 3 1.346 3 3 3zm0-4c.552 0 1 .449 1 1s-.448 1-1 1-1-.449-1-1 .448-1 1-1z"/><path d="m27 5h-14v6h14zm-6 2v2h-2v-2zm-6 0h2v2h-2zm10 2h-2v-2h2z"/><path d="m59 43.101v-37.101c0-2.757-2.243-5-5-5h-40c-2.757 0-5 2.243-5 5v15.7c-4.653 1.653-8 6.087-8 11.3s3.347 9.647 8 11.3v15.7c0 1.654 1.346 3 3 3h48c1.654 0 3-1.346 3-3v-12c0-2.414-1.721-4.434-4-4.899zm2 4.899v4h-1.49c-1.352 0-2.622-.526-3.577-1.481-.98-.98-2.282-1.519-3.666-1.519-1.028 0-2.023.302-2.875.871l-.392.261v-2.132c0-1.654 1.346-3 3-3h6c1.654 0 3 1.346 3 3zm-14 7h-4v-4h4zm-19-12.266c-1.057-.761-1.982-1.683-2.739-2.734h2.739zm14-1.734c-.406 0-.792.083-1.146.23l1.503-1.23h2.375c-.249.346-.517.679-.805 1zm3.898-3h-21.797c-.034-.073-.067-.147-.099-.221.382-.877.654-1.809.818-2.779h22.004c-.175 1.042-.488 2.047-.926 3zm-20.898-5c0-.683-.071-1.348-.181-2h22c.11.652.181 1.317.181 2zm-.7-4c-.094-.264-.189-.527-.3-.783 1.908-4.395 6.178-7.217 11-7.217 5.213 0 9.647 3.347 11.3 8zm5.7 11h9.198l-8.423 6.892c-.291.237-.775.004-.775-.366zm9.51 2.33c-.322.477-.51 1.052-.51 1.67v.292c-.856.302-1.739.512-2.64.615zm1.49 1.67c0-.552.448-1 1-1h9v.101c-1.213.247-2.253.946-2.974 1.899h-7.026zm16-1h-4v-5c0-.552.448-1 1-1h2c.552 0 1 .448 1 1zm0-37v7h-26v-10h23c1.654 0 3 1.346 3 3zm-43-3h15v10h-18v-7c0-1.654 1.346-3 3-3zm-3 12h46v20.184c-.314-.112-.648-.184-1-.184h-2c-1.654 0-3 1.346-3 3v3h-4.527c1.633-2.335 2.527-5.103 2.527-8 0-7.72-6.28-14-14-14-5.132 0-9.73 2.74-12.188 7.113-2.174-3.087-5.758-5.113-9.812-5.113-.683 0-1.348.071-2 .181zm-5.737 20h-2.061c-.132-.646-.202-1.315-.202-2s.07-1.354.202-2h2.062c-.167.641-.264 1.308-.264 2s.097 1.359.263 2zm-1.422 2h2.242c1.386 2.387 3.964 4 6.918 4 4.411 0 8-3.589 8-8s-3.589-8-8-8c-2.953 0-5.532 1.613-6.918 4h-2.242c1.547-3.527 5.068-6 9.159-6 5.514 0 10 4.486 10 10s-4.486 10-10 10c-4.091 0-7.612-2.473-9.159-6zm3.159-4c0-3.309 2.691-6 6-6s6 2.691 6 6-2.691 6-6 6-6-2.691-6-6zm6 12c4.058 0 7.646-2.03 9.819-5.122 1.226 2.168 3.01 3.975 5.181 5.233v1.416c0 1.364 1.109 2.473 2.474 2.473.568 0 1.124-.198 1.566-.559l1.838-1.504c.373.03.747.063 1.122.063.762 0 1.511-.076 2.252-.196-.16.367-.252.771-.252 1.196v7h-26v-10.181c.652.11 1.317.181 2 .181zm-2 15v-3h26v3c0 .352.072.686.184 1h-25.184c-.552 0-1-.448-1-1zm29 1c-.552 0-1-.448-1-1v-12c0-.552.448-1 1-1h7.101c-.066.323-.101.658-.101 1v1h-6v8h6v3c0 .351.061.688.171 1zm20 0h-10c-.552 0-1-.448-1-1v-7.465l1.502-1.001c1.228-.821 2.968-.65 4.017.398 1.333 1.334 3.105 2.068 4.991 2.068h1.49v6c0 .552-.448 1-1 1z"/></g></g></svg>